<mxfile host="Electron" agent="Mozilla/5.0 (Macintosh; Intel Mac OS X 10_15_7) AppleWebKit/537.36 (KHTML, like Gecko) draw.io/26.1.1 Chrome/132.0.6834.210 Electron/34.3.3 Safari/537.36" version="26.1.1">
  <diagram name="Page-1" id="oo691OZ0CvxA90YWQ1yY">
    <mxGraphModel dx="1114" dy="878" grid="1" gridSize="10" guides="1" tooltips="1" connect="1" arrows="1" fold="1" page="1" pageScale="1" pageWidth="827" pageHeight="1169" math="0" shadow="0">
      <root>
        <mxCell id="0" />
        <mxCell id="1" parent="0" />
        <mxCell id="nhYy6GHEPlUUs28kECK9-5" style="edgeStyle=orthogonalEdgeStyle;rounded=0;orthogonalLoop=1;jettySize=auto;html=1;entryX=0.5;entryY=0;entryDx=0;entryDy=0;endArrow=block;endFill=1;" edge="1" parent="1" source="nhYy6GHEPlUUs28kECK9-1" target="nhYy6GHEPlUUs28kECK9-2">
          <mxGeometry relative="1" as="geometry" />
        </mxCell>
        <mxCell id="nhYy6GHEPlUUs28kECK9-1" value="클라이언트" style="rounded=0;whiteSpace=wrap;html=1;" vertex="1" parent="1">
          <mxGeometry x="90" y="110" width="80" height="40" as="geometry" />
        </mxCell>
        <mxCell id="nhYy6GHEPlUUs28kECK9-6" style="edgeStyle=orthogonalEdgeStyle;rounded=0;orthogonalLoop=1;jettySize=auto;html=1;entryX=0.5;entryY=0;entryDx=0;entryDy=0;endArrow=block;endFill=1;" edge="1" parent="1" source="nhYy6GHEPlUUs28kECK9-2" target="nhYy6GHEPlUUs28kECK9-3">
          <mxGeometry relative="1" as="geometry" />
        </mxCell>
        <mxCell id="nhYy6GHEPlUUs28kECK9-7" style="edgeStyle=orthogonalEdgeStyle;rounded=0;orthogonalLoop=1;jettySize=auto;html=1;entryX=0.5;entryY=0;entryDx=0;entryDy=0;endArrow=block;endFill=1;" edge="1" parent="1" source="nhYy6GHEPlUUs28kECK9-2" target="nhYy6GHEPlUUs28kECK9-4">
          <mxGeometry relative="1" as="geometry" />
        </mxCell>
        <mxCell id="nhYy6GHEPlUUs28kECK9-2" value="퍼사드" style="rounded=0;whiteSpace=wrap;html=1;fillColor=#f5f5f5;fontColor=#333333;strokeColor=#666666;" vertex="1" parent="1">
          <mxGeometry x="90" y="180" width="80" height="40" as="geometry" />
        </mxCell>
        <mxCell id="nhYy6GHEPlUUs28kECK9-3" value="레거시" style="rounded=0;whiteSpace=wrap;html=1;" vertex="1" parent="1">
          <mxGeometry x="40" y="260" width="80" height="80" as="geometry" />
        </mxCell>
        <mxCell id="nhYy6GHEPlUUs28kECK9-4" value="현대" style="rounded=0;whiteSpace=wrap;html=1;" vertex="1" parent="1">
          <mxGeometry x="140" y="260" width="80" height="40" as="geometry" />
        </mxCell>
        <mxCell id="nhYy6GHEPlUUs28kECK9-8" style="edgeStyle=orthogonalEdgeStyle;rounded=0;orthogonalLoop=1;jettySize=auto;html=1;entryX=0.5;entryY=0;entryDx=0;entryDy=0;endArrow=block;endFill=1;" edge="1" parent="1" source="nhYy6GHEPlUUs28kECK9-9" target="nhYy6GHEPlUUs28kECK9-12">
          <mxGeometry relative="1" as="geometry" />
        </mxCell>
        <mxCell id="nhYy6GHEPlUUs28kECK9-9" value="클라이언트" style="rounded=0;whiteSpace=wrap;html=1;" vertex="1" parent="1">
          <mxGeometry x="330" y="110" width="80" height="40" as="geometry" />
        </mxCell>
        <mxCell id="nhYy6GHEPlUUs28kECK9-10" style="edgeStyle=orthogonalEdgeStyle;rounded=0;orthogonalLoop=1;jettySize=auto;html=1;entryX=0.5;entryY=0;entryDx=0;entryDy=0;endArrow=block;endFill=1;" edge="1" parent="1" source="nhYy6GHEPlUUs28kECK9-12" target="nhYy6GHEPlUUs28kECK9-13">
          <mxGeometry relative="1" as="geometry" />
        </mxCell>
        <mxCell id="nhYy6GHEPlUUs28kECK9-11" style="edgeStyle=orthogonalEdgeStyle;rounded=0;orthogonalLoop=1;jettySize=auto;html=1;entryX=0.5;entryY=0;entryDx=0;entryDy=0;endArrow=block;endFill=1;" edge="1" parent="1" source="nhYy6GHEPlUUs28kECK9-12" target="nhYy6GHEPlUUs28kECK9-14">
          <mxGeometry relative="1" as="geometry" />
        </mxCell>
        <mxCell id="nhYy6GHEPlUUs28kECK9-12" value="퍼사드" style="rounded=0;whiteSpace=wrap;html=1;fillColor=#f5f5f5;fontColor=#333333;strokeColor=#666666;" vertex="1" parent="1">
          <mxGeometry x="330" y="180" width="80" height="40" as="geometry" />
        </mxCell>
        <mxCell id="nhYy6GHEPlUUs28kECK9-13" value="레거시" style="rounded=0;whiteSpace=wrap;html=1;" vertex="1" parent="1">
          <mxGeometry x="280" y="260" width="80" height="40" as="geometry" />
        </mxCell>
        <mxCell id="nhYy6GHEPlUUs28kECK9-14" value="현대" style="rounded=0;whiteSpace=wrap;html=1;" vertex="1" parent="1">
          <mxGeometry x="380" y="260" width="80" height="80" as="geometry" />
        </mxCell>
        <mxCell id="nhYy6GHEPlUUs28kECK9-15" style="edgeStyle=orthogonalEdgeStyle;rounded=0;orthogonalLoop=1;jettySize=auto;html=1;entryX=0.5;entryY=0;entryDx=0;entryDy=0;endArrow=block;endFill=1;" edge="1" parent="1" source="nhYy6GHEPlUUs28kECK9-16" target="nhYy6GHEPlUUs28kECK9-21">
          <mxGeometry relative="1" as="geometry">
            <mxPoint x="610" y="180" as="targetPoint" />
          </mxGeometry>
        </mxCell>
        <mxCell id="nhYy6GHEPlUUs28kECK9-16" value="클라이언트" style="rounded=0;whiteSpace=wrap;html=1;" vertex="1" parent="1">
          <mxGeometry x="570" y="110" width="80" height="40" as="geometry" />
        </mxCell>
        <mxCell id="nhYy6GHEPlUUs28kECK9-21" value="현대" style="rounded=0;whiteSpace=wrap;html=1;" vertex="1" parent="1">
          <mxGeometry x="550" y="240" width="120" height="100" as="geometry" />
        </mxCell>
        <mxCell id="nhYy6GHEPlUUs28kECK9-22" value="초기 마이그레이션" style="text;html=1;align=center;verticalAlign=middle;whiteSpace=wrap;rounded=0;fontStyle=1" vertex="1" parent="1">
          <mxGeometry x="80" y="380" width="100" height="30" as="geometry" />
        </mxCell>
        <mxCell id="nhYy6GHEPlUUs28kECK9-23" value="후기 마이그레이션" style="text;html=1;align=center;verticalAlign=middle;whiteSpace=wrap;rounded=0;fontStyle=1" vertex="1" parent="1">
          <mxGeometry x="320" y="380" width="100" height="30" as="geometry" />
        </mxCell>
        <mxCell id="nhYy6GHEPlUUs28kECK9-24" value="마이그레이션 완료" style="text;html=1;align=center;verticalAlign=middle;whiteSpace=wrap;rounded=0;fontStyle=1" vertex="1" parent="1">
          <mxGeometry x="560" y="380" width="100" height="30" as="geometry" />
        </mxCell>
      </root>
    </mxGraphModel>
  </diagram>
</mxfile>
